<?xml version="1.0" standalone="no"?><!DOCTYPE svg PUBLIC "-//W3C//DTD SVG 1.1//EN" "http://www.w3.org/Graphics/SVG/1.1/DTD/svg11.dtd"><svg t="1491279910826" class="icon" style="" viewBox="0 0 1024 1024" version="1.1" xmlns="http://www.w3.org/2000/svg" p-id="1692" xmlns:xlink="http://www.w3.org/1999/xlink" width="200" height="200"><defs><style type="text/css"></style></defs><path d="M637.7 402.2c5.2 3.5 23.1 6.5 30.7 0 7.1-6.2 1.4-21.5-2.7-26.9-10.9-14.1-29.1-23.1-44.3-32.6-5.4-3.3-10.1-7.3-17.4-8.7-2.2 1.6-3.3 1.9-4.3 4.9 2.4 3.3 9 17.1 9.8 20.6 7 15.5 15.1 34 28.2 42.7zM884 643.1c-1.1-6.8-2.4-56.8-1.9-60.6 0.8-6.2 0.5-27.2 1.6-31 0.8-3-0.5-21.2-2.2-23.6-1.4-3.5-3.8-7.3-6.2-9.8-1.9-2.2-5.7-4.6-8.4-6-10.1-1.6-29.1 4.1-34.8 6.5-5.2 3.3-14.4 3.3-19.6 6.5-5.2 3-11.1 3.8-16.3 6-5.7 2.4-14.9 6-17.1 11.7-2.2 5.4 1.1 35.6 1.6 39.4 0.3 3-0.8 35.9-0.8 39.7-1.6 9.5-3 19.3-4.6 28.8-1.9 9.8-0.3 14.9-4.6 21.7-3 4.3-7.9 5.7-11.7 8.4-0.3 1.1-0.3 1.9-0.5 3 3 6.8 17.7 15.8 24.4 19.6 2.4 1.4 5.4 4.6 10.1 3.5 3.3-0.8 7.9-5.4 9.5-8.4 1.9-3.5 0.3-7.9 0.5-12 0.5-6 0.8-12 1.6-17.1 0.5-2.7 0.8-12 1.1-22.3 0.5-0.3 0.8-0.5 1.4-0.8 3-1.4 6.2-1.6 9.8-2.7 2.7-0.8 9.8-3.3 12.2-3.8 1.4-0.5 1.1-1.1 5.7-2.4 1.4-0.3 5.4-0.8 7.1-1.4 1.1-0.3 3-0.8 3.8-1.9 0.5-0.8 0.3-2.7 0.3-4.1 0-3.3-0.8-3.8-1.1-6.5-0.3-2.2-1.4-4.3-1.9-5.7-0.3-0.8-5.2-1.1-6-0.8-0.8 0.3-3 0.5-6.2 1.1-1.1 0.3-2.2 0.5-3.3 0.5-4.9 1.1-10.9 2.2-13 2.7-3.3 0.8-6 1.4-8.1 1.4 0-3.8 0-8.7 0.3-13.9 5.7-3 11.4-6.8 16.8-9 3-1.4 6.2-0.8 9.8-1.6 2.7-0.8 10.6-2.7 12.8-4.1 0.5 0 4.3-1.4 9-3 0.5 13.6 1.9 32.9 1.1 35.6-0.5 1.6 0 9.8 0.8 12 1.4 7.3 0 17.9-0.8 24.2-1.4 8.4 2.7 20.6-1.4 26.1-6.5 8.1-34.8-8.7-39.7 4.3 3.3 6.5 10.6 7.1 16.8 10.3 3.5 2.7 20.4 11.4 26.1 13.6 2.7 1.4 5.4 3 8.1 4.3 5.2 2.4 14.4 5.7 18.2 0.3 9.8-13.6 1.1-20.4 1.1-36.1 0-13.8 0.8-29-1.4-42.6z m-34.4-71.4c-6.2 1.9-13 3.8-18.5 5.2-5.4 1.6-9.8 1.4-11.4 1.9-3.8 0.5-7.6 1.4-11.4 1.9h-0.5c0.5-6 1.6-12 1.9-13.6 4.1-19.3 13.6-13 28.8-19.3 11.7-0.3 11.1 1.6 13.9 10.6 1.1 3.5 1.9 7.6 2.4 12-2 0.2-3.9 0.8-5.2 1.3zM953.3 449.5c-0.3-1.4-2.2-3.3-3.5-3.8-3.3-1.1-16.6 4.9-20.6 6.2-6.8 1.4-11.7 3-18.5 4.3-7.9 2.4-16.3 5.2-24.4 7.3-3.5 0.3-9.8 1.9-13 1.9-5.7 1.1-10.3 1.6-17.1 3.5-4.1 0.5-13 2.2-23.4 4.3 0.8-6.8 1.4-14.4 2.2-22 3.3-0.8 5.7-1.4 7.3-1.9 22.3-7.9 49.2-12.5 74.7-16.8 9.5-1.6 30.7 3.5 33.7-2.7 1.1-3-1.9-6.8-3-9-2.4-6-6.5-29.1-14.9-27.4-5.7 1.1-10.1 5.4-14.9 7.9-3.8 1.1-7.6 1.9-11.1 3-3.5 1.9-32.1 9-34.8 9-12.2 3.5-19 5.7-30.4 9-0.5 0-1.9 0-3.8 0.5 0.3-4.3 0.5-7.6 0.8-9.2-0.3-0.8 0.3-8.1 1.6-17.7 8.7-2.2 15.5-3.8 16.8-4.1 9.2-1.1 16.6-3.3 26.1-4.3 4.1-1.6 10.1-2.2 14.4-3.8 17.1-4.1 34-5.7 50.3-10.9 0.5-1.1 1.1-2.2 1.6-3.3-0.3-5.4-18.5-38-24.2-39.4-4.1-1.1-12.2 7.9-16.6 9.5-5.2 1.9-9 5.2-13.9 7.3-5.2 1.9-21.2 9-23.9 10.6-4.1 1.4-20.6 7.9-24.4 9.8h-0.8c0.8-4.6 1.4-7.9 1.1-8.1 1.4-3.8 3-19.6 4.6-23.4 1.4-3.5 6.2-8.1 4.9-12.5-1.6-5.2-7.3-7.6-10.3-11.7-3-4.1-36.4-11.4-42.6-12.5-3.8-0.3-9.2 0.3-13 0-3-1.1-8.7 4.6-9.2 7.6 4.3 6.5 5.2 11.4 8.4 19 3.5 8.1 3.5 18.5 4.6 29.1 0.3 1.9 0.5 11.7 1.1 22.3 0 1.1 0 2.2 0.3 3.3-9.5 2.2-19.6 4.3-27.4 6.2-10.3 2.4-35 4.3-42.4 5.4-4.9-0.8-11.1-1.4-17.1-1.4-9.2 0.3-19.8-2.2-22 6.5 0.8 5.2 9.8 16 10.6 17.7 2.7 5.2 14.4 16.6 16 16.3 8.1-3 12.2-3.3 18.2-4.9 5.7-1.6 12.8-4.9 20.9-7.3 3-0.8 19.3-5.2 22.5-6 4.3-1.1 16.6-4.1 22.8-6 0.3 1.9 1.1 12.5 1.6 24.7-9 2.2-16.6 4.1-19.8 4.6-4.9 1.1-34 4.9-39.7 5.7-8.1 1.6-10.6 1.9-18.5 3.3-5.4 0.8-11.7 1.6-19 1.1-4.3-1.1-19.3 0-19.6 2.2-0.8 6.8 6.5 9.2 10.6 14.1 6.8 8.4 11.7 13.9 16.8 22.5 0 0 3.8 2.7 9-0.5 0.5-0.5 3.3-1.9 6-3.3 3.3-1.6 7.1-3.5 9.5-4.3 2.4-0.8 11.1-4.1 19.6-7.1 8.1-3 16-5.7 17.7-6.5 3-1.4 15.5-3.5 29.1-6 0.3 7.3 0.8 13.3 0.8 15.5-0.3 2.2-0.5 4.6-0.8 7.6-0.8 0.3-1.6 0.3-2.4 0.5-11.1 2.7-20.1 4.9-22.8 5.7-9.5 3-32.6 9.8-37.5 10.6-3.5 0.5-15.8 1.6-19.3 1.9-3 0.3-13 1.1-14.4 0.8-3 0-21.5-1.1-28.8 0.5-0.8 0-1.6 0.3-2.2 0.5-1.4 0.3-3 3-2.7 3.8 0.8 2.2 1.6 3 3.3 5.2 5.2 9.2 10.6 18.2 15.8 27.4 1.6 3.5 3.8 10.3 10.1 8.7l10.1-4.9c9.8-4.1 20.4-7.9 29.9-12 4.1-1.1 21.2-8.1 25.3-9.2 12.8-4.9 66.5-19 69.3-19 3.8-1.1 48.1-11.4 51.9-11.7 9.2-2.2 21.5-5.2 31.8-6 24.2-0.5 13.3-0.5 29.6-0.3 9.5-0.3 12.2-1.1 12.2-3-1.1-13.1-7.1-28.9-6.8-30.5zM586.6 492.1c1.9 1.9 10.3 16.6 14.7 19.6 6.5 4.6 33.4 1.4 36.9-3 8.4-10.9-5.4-22-8.4-27.2-0.8-2.7-9.5-14.7-13-17.7-6.8-5.4-12.2-11.1-19.6-16-3.8-2.7-8.7-5.2-12.8-7.1-4.1-2.4-19-10.6-23.9-10.9-1.6 1.4-2.4 2.2-3.5 4.3 0.5 6.5 5.2 10.6 7.1 16 1.1 3.5 9 17.7 11.4 21.2 3.8 7 7.6 13.8 11.1 20.8zM666.7 542.4c-4.6 0.3-10.9 6.5-12.8 12-1.6 4.3-8.7 18.2-11.4 21.5-1.6 3.3-11.1 16.6-14.4 20.1-6.5 9.2-12.5 17.7-21.2 24.7-5.4 4.1-10.3 9-16 13-5.2 5.2-10.3 10.3-15.5 15.8 0 2.4 0.5 3.3 1.1 4.9 8.1 4.9 21.5 3 31.5 5.7 6 2.2 25.3 13.3 30.4 14.7 6.5 1.9 20.6-2.2 23.6-6.5 0.3-0.3 0.5-1.9 0.5-2.4V657c0-1.6 0.5-7.1 0.8-8.1 2.2-9.8 3.8-21.2 5.7-32.1 0-7.3 2.4-31 3-41.3 0.3-6.2 1.6-14.4 1.6-15.5 1-7.3-1.4-17.6-6.9-17.6zM245.2 409.5c0.8-3.8 1.6-8.4 0.3-11.7-4.1-6.8-29.6-2.7-36.9-1.4 1.4-12.2 2.4-29.3 3.5-36.9 0.3-1.9 0.8-6 1.1-7.3 0.8-4.6 0.8-6.8 0-9.8-0.8-3.5-2.4-7.6-10.1-10.1-6.8-3.8-26.1-6.5-31.8-7.9-11.7 1.1-15.2 3.5-16.6 5.7-0.5 0.8 0 3.8 0.3 4.3 2.4 5.2 1.4 8.4 3.8 14.9 3.3 7.9 3.5 17.4 4.3 27.7 0.3 1.9 0.5 11.1 1.1 21.2 0.3 3.3 0.3 6.5 0.5 9.8-0.8 0.3-1.6 0.5-2.4 0.8-9.2 3-16.6 4.3-19.6 5.2-3.8 0.8-7.9 1.9-11.7 2.7-2.7 0.5-12.5 1.6-14.9 2.2-2.4 0.5-4.9 1.1-7.6 1.4-8.4 0.8-16.8 2.2-18.5 5.2-1.4 7.3 9.2 31.2 12 35 1.1 1.6 4.3 4.6 7.3 3.8 9.8-2.7 18.7-7.3 27.7-12.2 5.7-3 11.4-6 17.1-8.4 2.2-0.8 4.1-1.6 6.2-2.4 1.9-0.8 4.3-1.6 6.5-2.2 0.5 4.9 1.1 9.2 1.6 12.2 0 2.4-0.5 18.7-0.8 25-0.4 7.6-0.6 15.3-1 22.4-3.1 1.6-6.1 3-8.3 4.2-5.4 5.7-15.5 11.7-21.5 14.4-1.1 1.1-23.6 12.2-29.1 15.5-4.1 2.4-16.6 7.3-23.4 7.9-7.9 0.8-13.3 3.5-13.9 4.1-1.6 1.6-4.1 3.3-5.2 5.7-1.6 3.8-1.9 4.6 1.1 8.4 4.1 5.7 26.9 24.4 32.6 25.3 15.2 2.2 25.3-12.2 32.9-17.4 5.7-3.8 29.1-24.4 33.4-28 0.4-0.3 0.9-0.7 1.3-1.1-0.1 1.5-0.1 3.1-0.2 4.7-0.5 8.7-1.1 19.3-1.6 28-0.5 7.6 0.8 12.8 0.3 19.3-0.8 13-1.6 22.8-1.9 24.2-0.5 8.1 1.1 9 0.5 16.3-0.3 3.3-3.5 6.2-4.1 6.2-0.3 0-1.6 0.3-1.6 0.3-0.5 0-33.4-3.5-34-3.5-1.9 0.3-5.4-0.5-7.1-0.3-4.9 0.8-6.5 3.5-7.9 7.1-0.5 2.2 0.8 4.3 1.1 4.9 0.8 1.4 4.9 5.7 8.4 7.6 4.1 2.2 37.2 15.2 41.3 17.1 5.2 2.2 13 3.8 17.7 4.1 2.7 0 9.8 0.3 11.1 0 2.7 0 5.7-1.9 7.1-4.3 0.8-1.4 1.4-2.2 1.9-3.8 1.4-4.1 2.7-14.1 3-16.6 0.5-5.2 0.3-12 0.5-17.4-1.9-6-1.1-29.9-1.1-33.7 1.6-3 0.3-58.7 0.5-61.4 0.8-7.1 0.8-19 1.1-26.1 0.3-11.1 2.2-23.1 2.4-34.5 0.3-6 0.5-29.3 1.1-47.5 3.8-1.4 6.8-2.7 7.6-3 13-4.1 11.7-3.3 22-7.1 3-0.9 10.3-7.7 10.6-8.8zM454.6 548.9c-7.3-4.9-13.6-10-21.5-15.5-8.7-5.7-17.7-12.2-21.5-14.7-3.5-3.3-14.7-9.5-17.1-12-1.1-0.8-3.8-2.7-7.1-5.2 6-1.1 12-2.4 18.5-3.3 4.3-1.9 10.3-2.4 14.7-4.1 6.5-0.8 11.7-1.6 16.3-2.4 8.4-1.4 14.7-2.4 22.8-3.8 2.2-0.5 3.3-0.8 6-1.1 4.3-0.5 4.6-6.8 4.3-7.3-2.2-5.2-2.4-5.2-4.9-9.2-1.9-5.2-7.3-12.2-10.9-17.7-0.8-1.1-3.8-4.3-4.6-4.6-0.8-0.3-1.9-0.8-3.5-0.5-1.9 0.3-4.6 1.1-7.1 1.6-2.7 0.5-6.5 3.5-9.5 4.3-2.7 0.8-11.1 3.5-18.5 6 4.3-19.3 9-41.6 10.1-42.9 2.4-9.8 6.8-33.1 8.1-41.6 1.1-6.5 3.5-12.8 4.6-19.8 0.8-6 0.3-14.1-1.4-17.4-3-5.7-10.1-7.1-17.4-9.8-9.5-3.5-14.9-2.7-28.2-3-39.7 4.3-88 19-92.1 22-0.8 0.8-5.4 6.5-5.4 8.4-0.3 4.1 0.5 7.1 3.5 13.3 1.1 3.3 2.4 8.4 2.4 8.7 3 4.6 4.3 26.6 3 34.5-1.1 7.9-2.7 34.2-4.6 42.4-0.3 8.7-2.2 27.4-4.1 33.7 0 1.9-0.3 4.6-0.5 7.9-0.3 0-0.5 0-0.8 0.3-10.6 2.7-13.9 3.5-17.1 4.1-1.6 0.3-4.9 1.1-6 1.4-4.9 1.4-3 1.1-11.4 4.1-7.9 2.7-8.4 3.5-8.4 10-0.8 7.6 1.6 16.3 2.7 17.9 0.5 0.8 1.6 2.2 3 3.3 1.4 1.1 6.5 2.2 7.3 1.9 12.5-4.1 5.2-2.7 13-5.2 3-1.1 8.1-2.2 13.3-4.3 4.1-1.6 10.3-3 13.9-3.8 5.2-1.4 12.2-3.8 22-6.8 5.4-0.8 14.1-2.2 26.3-5.4 2.7 1.6 6 3.8 9.8 6-6.5 5.4-16.3 12-24.2 16.3-10.6 7.3-20.1 15.2-30.2 21.5-11.4 5.4-20.6 13.9-32.1 19.3-5.7 3.3-16.6 9.2-23.9 13.3-4.6 1.4-21.5 8.1-21.7 8.7-1.6 1.4-4.3 3.3-5.4 5.4-1.9 3.5-2.2 4.1-0.3 8.4 2.7 6 13 22.3 17.9 22.8 6.2 0.8 10.6-2.7 14.9-6 0.8 0 17.1-10.3 19.8-12.2 2.2-1.4 4.6-2.4 7.9-4.9 8.4-6.2 14.1-9.8 18.2-12 2.7-2.4 5.7-4.3 8.4-6.8 20.4-12.2 39.4-28.5 59.2-41 7.6-4.9 13.3-10.3 19.8-15.2 1.6 1.4 3.5 2.7 4.3 3.3 0.3 0.3 4.6 3.3 10.1 7.3-1.9 2.2-3.5 3.8-3.8 4.1-3.3 3.3-16.6 14.4-18.5 16l-2.4 2.4c-2.2 1.9-12.2 12.5-13.9 13.6-7.1 4.9-14.1 12.5-20.9 17.1-8.1 5.7-16 12.5-23.9 18.7-6.2 4.9-24.2 17.4-26.3 19.8-1.4 1.1-3 2.4-4.9 3.8-0.8 0.5-9.2 6.5-18.7 11.1-8.1 3.3-14.4 5.4-16 6.5-1.9 1.4-4.6 4.1-5.4 6.5-1.4 3.8 0 5.7 2.4 9.8 1.6 2.4 4.6 7.3 8.4 11.7 4.9 5.2 11.4 9.2 14.4 9.2 2.2 0.3 19.8-13 20.4-13 1.4-0.8 3.8-3 6.8-5.4 14.4-11.1 36.4-29.9 43.2-37.2 8.1-7.1 14.9-12.8 23.4-19.6 9-9.8 34-31.5 37.2-34.2 1.6-2.4 11.7-12 13.3-13.6 1.1-1.4 4.1-2.7 7.3-5.4 0.3-0.3 1.6-1.4 3.3-2.7 2.4 1.9 4.6 3.5 5.2 4.3 1.4 1.6 5.4 4.3 2.7 10.1-1.9 5.2-3.8 8.7-7.6 14.9-2.7 4.6-4.6 9.2-7.6 13.9-1.9 2.7-16.8 24.2-20.9 28.5-0.8 0.8-4.1 6.2-11.4 13-1.1 1.1-6.2 6.2-9.5 7.9-5.4 3-7.6 4.9-12 6.5-4.1 2.7-7.1 3.5-5.7 9.5 2.2 3.5 4.9 7.1 8.4 10.3 4.1 3.8 15.2 13.9 19.6 14.7 0.8 0.3 1.4 0.5 1.4 0.5 3.3 0 3.5-1.1 5.7-2.4 3.5-2.2 27.2-33.7 32.1-40.7 3.5-4.6 5.7-7.9 9-12.2 12-17.4 36.9-58.1 38.8-64.9 0-2.7 0.8-11.1-0.3-14.4-1.4-5.6-11.5-13.2-18-17.3z m-84.7-75c-15.5 5.2-34 10.9-46.2 13.9-1.4 0.3-3 0.8-4.3 1.1 1.6-12 3.3-22.8 4.1-26.1 0.5-4.6 1.4-9.5 1.6-10.6 1.9-0.5 4.1-1.4 6.2-2.2 10.3-4.1 21.2-6.2 24.2-6.8 3.3-1.1 14.4-4.1 19.6-6-0.9 4.7-4.2 28.8-5.2 36.7z m13.3-92.6s-2.7 17.4-3.8 25.8c-0.8 0.3-1.6 0.5-2.4 0.5-2.7 0.8-5.7 1.9-9 2.7-5.2 1.4-9.8 2.7-16.3 4.3-8.1 2.2-16.3 3.5-18.7 4.1-1.1 0.3-2.4 0.5-3.5 0.8 1.1-9.2 2.2-17.1 2.4-19 0.5-4.3 0.5-7.1 1.6-13.3 0.8-2.7 0.8-6.8 3.3-7.3 3-0.3 9.5-3 10.9-3 0.8 0 12.8-2.7 17.4-3 1.9-0.3 15.2-2.4 16-2.2 4.2 2 1.8 9.6 2.1 9.6z" fill="#fabe00" p-id="1693"></path></svg>